<?xml version="1.0" encoding="iso-8859-1"?>
<!-- Generator: Adobe Illustrator 19.0.0, SVG Export Plug-In . SVG Version: 6.00 Build 0)  -->
<svg version="1.1" id="Capa_1" xmlns="http://www.w3.org/2000/svg" xmlns:xlink="http://www.w3.org/1999/xlink" x="0px" y="0px"
	 viewBox="0 0 480 480" style="enable-background:new 0 0 480 480;" xml:space="preserve">
<g>
	<path style="fill:#68E8BB;" d="M440,96c-13.088,0-24.304,7.872-29.256,19.128c-0.848,1.92-1.504,3.936-1.968,6.024
		c-0.016,0.064-0.04,0.12-0.056,0.184c-0.472,2.144-0.72,4.376-0.72,6.664c0,1.84,0.24,3.624,0.544,5.376
		c0.136,0.744,0.272,1.488,0.464,2.216c0.184,0.744,0.44,1.456,0.68,2.176c0.68,2.016,1.496,3.968,2.52,5.8
		c5.48,9.76,15.8,16.432,27.792,16.432c17.672,0,32-14.328,32-32S457.672,96,440,96z"/>
	<path style="fill:#ff7171;" d="M210.752,52.888c0.664,1.512,1.464,2.952,2.352,4.328c0.432,0.68,0.936,1.304,1.416,1.944
		c0.632,0.84,1.288,1.648,1.992,2.416c0.528,0.576,1.056,1.136,1.624,1.672c0.96,0.904,1.992,1.744,3.064,2.528
		c0.376,0.28,0.72,0.6,1.112,0.864c1.432,0.952,2.968,1.752,4.552,2.472c0.712,0.328,1.472,0.568,2.216,0.848
		c0.504,0.184,1.032,0.32,1.544,0.48c0.592,0.184,1.168,0.4,1.768,0.552c0.648,0.16,1.296,0.32,1.96,0.44
		C236.184,71.76,238.064,72,240,72s3.816-0.24,5.656-0.568c0.664-0.12,1.312-0.28,1.96-0.44c0.608-0.152,1.184-0.36,1.768-0.552
		c0.512-0.16,1.04-0.296,1.544-0.48c0.744-0.272,1.504-0.52,2.216-0.848c1.584-0.72,3.12-1.52,4.552-2.472
		c0.392-0.264,0.736-0.584,1.112-0.864c1.072-0.784,2.096-1.616,3.064-2.528c0.568-0.536,1.096-1.096,1.624-1.672
		c0.704-0.776,1.368-1.584,1.992-2.416c0.48-0.64,0.984-1.272,1.416-1.944c0.88-1.376,1.68-2.816,2.352-4.328
		c0-0.008,0.008-0.008,0.008-0.016C271,48.928,272,44.584,272,40c0-17.672-14.328-32-32-32s-32,14.328-32,32
		c0,4.584,1,8.928,2.744,12.872C210.744,52.88,210.744,52.888,210.752,52.888z"/>
	<path style="fill:#a6dcef;" d="M40,160c11.992,0,22.312-6.672,27.8-16.432c1.024-1.832,1.84-3.784,2.52-5.8
		c0.24-0.72,0.488-1.44,0.68-2.176c0.184-0.728,0.328-1.472,0.464-2.216C71.776,131.624,72,129.848,72,128
		c0-2.288-0.248-4.52-0.72-6.664c-0.016-0.064-0.04-0.12-0.056-0.184c-0.464-2.088-1.12-4.104-1.968-6.024
		C64.304,103.872,53.088,96,40,96c-17.672,0-32,14.328-32,32S22.328,160,40,160z"/>
	<path style="fill:#ffeb99;" d="M440,320c-6.36,0-12.256,1.912-17.24,5.112c-0.688,0.44-1.328,0.952-1.976,1.448
		c-0.76,0.576-1.488,1.176-2.2,1.816c-0.584,0.52-1.168,1.04-1.712,1.6c-1.056,1.112-2.032,2.296-2.928,3.544
		c-0.376,0.52-0.704,1.072-1.04,1.608c-0.264,0.416-0.464,0.872-0.712,1.304c-1.024,1.824-1.84,3.776-2.52,5.792
		c-0.224,0.728-0.496,1.44-0.68,2.184c-0.184,0.728-0.328,1.464-0.464,2.208c-0.304,1.76-0.528,3.536-0.528,5.384
		c0,2.288,0.248,4.52,0.72,6.664c0.008,0.056,0.032,0.096,0.048,0.152c0.464,2.096,1.128,4.128,1.976,6.056
		C415.704,376.128,426.912,384,440,384c17.672,0,32-14.328,32-32S457.672,320,440,320z"/>
	<path style="fill:#a6b1e1;" d="M240,472c17.672,0,32-14.328,32-32c0-6.36-1.904-12.248-5.104-17.224
		c-0.432-0.672-0.928-1.296-1.4-1.928c-0.632-0.84-1.296-1.664-2.008-2.44c-0.52-0.568-1.048-1.128-1.608-1.656
		c-0.968-0.912-2-1.752-3.08-2.544c-0.376-0.272-0.712-0.592-1.104-0.856c-1.472-0.984-3.048-1.816-4.68-2.544
		c-0.528-0.24-1.088-0.424-1.632-0.632c-1.264-0.48-2.568-0.888-3.912-1.216c-0.56-0.136-1.112-0.28-1.688-0.384
		c-1.88-0.336-3.8-0.576-5.784-0.576c-1.984,0-3.904,0.24-5.784,0.584c-0.568,0.104-1.128,0.248-1.688,0.384
		c-1.344,0.32-2.64,0.728-3.912,1.216c-0.544,0.208-1.104,0.4-1.632,0.632c-1.632,0.728-3.208,1.56-4.68,2.544
		c-0.384,0.256-0.728,0.576-1.104,0.856c-1.08,0.784-2.112,1.624-3.08,2.544c-0.56,0.528-1.088,1.088-1.608,1.656
		c-0.712,0.776-1.376,1.592-2.008,2.44c-0.48,0.64-0.976,1.256-1.4,1.928C209.904,427.752,208,433.64,208,440
		C208,457.672,222.328,472,240,472z"/>
	<path style="fill:#eab0d9;" d="M40,384c13.088,0,24.296-7.872,29.256-19.128c0.848-1.928,1.512-3.952,1.976-6.056
		c0.008-0.048,0.032-0.096,0.048-0.152C71.752,356.52,72,354.288,72,352c0-1.96-0.24-3.856-0.576-5.712
		c-0.08-0.456-0.168-0.912-0.272-1.36c-0.04-0.176-0.12-0.336-0.16-0.512c-0.192-0.744-0.432-1.464-0.68-2.184
		c-0.256-0.792-0.424-1.624-0.744-2.392c-0.16-0.392-0.368-0.752-0.544-1.136c-0.36-0.784-0.712-1.576-1.136-2.328
		c-0.248-0.432-0.544-0.832-0.808-1.248c-0.344-0.544-0.672-1.088-1.04-1.608c-0.888-1.248-1.864-2.432-2.928-3.544
		c-0.544-0.568-1.128-1.08-1.712-1.6c-0.704-0.64-1.44-1.24-2.2-1.816c-0.656-0.496-1.288-1.008-1.976-1.448
		C52.256,321.912,46.36,320,40,320c-17.672,0-32,14.328-32,32S22.328,384,40,384z"/>
</g>
<path style="fill:#17B2B0;" d="M219.584,264.448c0.376,0.312,0.736,0.632,1.12,0.928c0.816,0.632,1.656,1.224,2.536,1.768
	c1.024,0.632,2.088,1.216,3.184,1.728c0.72,0.344,1.464,0.656,2.208,0.944c1.312,0.504,2.664,0.936,4.056,1.256
	c0.536,0.128,1.08,0.24,1.632,0.344c1.856,0.344,3.736,0.584,5.68,0.584s3.824-0.24,5.672-0.568
	c0.552-0.104,1.096-0.216,1.632-0.344c1.392-0.328,2.736-0.76,4.056-1.256c0.752-0.288,1.488-0.6,2.208-0.944
	c1.104-0.52,2.168-1.096,3.192-1.736c0.872-0.552,1.72-1.144,2.528-1.768c0.384-0.296,0.752-0.616,1.12-0.928
	c2.976-2.488,5.464-5.48,7.376-8.888C270.392,250.944,272,245.68,272,240s-1.608-10.944-4.2-15.568
	c-1.912-3.408-4.4-6.392-7.376-8.88c-0.376-0.312-0.736-0.632-1.128-0.928c-0.816-0.632-1.656-1.224-2.536-1.768
	c-1.032-0.64-2.096-1.216-3.192-1.736c-0.72-0.344-1.456-0.648-2.2-0.944c-1.32-0.504-2.664-0.936-4.064-1.264
	c-0.536-0.128-1.08-0.24-1.632-0.344C243.824,208.24,241.944,208,240,208s-3.832,0.232-5.672,0.568
	c-0.552,0.104-1.096,0.216-1.632,0.344c-1.392,0.328-2.744,0.752-4.064,1.264c-0.752,0.288-1.48,0.6-2.2,0.944
	c-1.096,0.528-2.168,1.088-3.192,1.736c-0.872,0.552-1.72,1.144-2.536,1.768c-0.384,0.296-0.752,0.616-1.128,0.928
	c-2.976,2.488-5.464,5.472-7.376,8.88c-2.592,4.624-4.2,9.888-4.2,15.568s1.608,10.944,4.2,15.568
	C214.12,258.976,216.608,261.96,219.584,264.448z"/>
<path style="fill:#143446;" d="M480,128c0-22.056-17.944-40-40-40c-13.448,0-25.312,6.72-32.56,16.928l-128.376-56.48
	C279.656,45.72,280,42.904,280,40c0-22.056-17.944-40-40-40s-40,17.944-40,40c0,2.904,0.344,5.72,0.936,8.448L72.56,104.928
	C65.312,94.72,53.448,88,40,88c-22.056,0-40,17.944-40,40c0,19.312,13.768,35.472,32,39.192v145.616C13.768,316.528,0,332.688,0,352
	c0,22.056,17.944,40,40,40c13.448,0,25.312-6.72,32.56-16.928l128.376,56.48C200.344,434.28,200,437.096,200,440
	c0,22.056,17.944,40,40,40s40-17.944,40-40c0-2.904-0.344-5.72-0.936-8.448l128.376-56.48C414.688,385.28,426.552,392,440,392
	c22.056,0,40-17.944,40-40c0-19.312-13.768-35.472-32-39.192V167.192C466.232,163.472,480,147.312,480,128z M425.64,314.776
	L345.656,190l64.224-35.968c5.672,6.552,13.312,11.36,22.12,13.16v145.616C429.792,313.256,427.696,313.976,425.64,314.776z
	 M409.88,325.968L277.928,252.08C279.16,248.24,280,244.232,280,240s-0.84-8.24-2.064-12.072l53.736-30.088l80.472,125.52
	c-0.032,0.024-0.048,0.064-0.072,0.088C411.272,324.232,410.608,325.128,409.88,325.968z M260.824,251.648
	c-2.12,3.768-5.144,6.808-8.696,8.944c-0.112,0.064-0.232,0.12-0.344,0.192c-1.536,0.888-3.176,1.56-4.872,2.088
	c-0.36,0.112-0.712,0.24-1.072,0.336c-1.896,0.48-3.848,0.792-5.84,0.792s-3.944-0.312-5.832-0.8
	c-0.368-0.096-0.712-0.224-1.072-0.336c-1.696-0.528-3.336-1.2-4.872-2.08c-0.112-0.064-0.232-0.12-0.352-0.192
	c-3.544-2.136-6.576-5.176-8.688-8.944c-0.024-0.04-0.064-0.064-0.088-0.104C217.184,248.104,216,244.208,216,240
	s1.184-8.104,3.088-11.544c0.024-0.04,0.064-0.064,0.088-0.104c2.12-3.768,5.144-6.808,8.696-8.944
	c0.112-0.064,0.232-0.12,0.344-0.184c1.536-0.888,3.184-1.56,4.88-2.088c0.36-0.112,0.704-0.24,1.072-0.336
	c1.888-0.488,3.84-0.8,5.832-0.8s3.944,0.312,5.832,0.8c0.368,0.096,0.712,0.224,1.072,0.336c1.696,0.528,3.344,1.2,4.872,2.088
	c0.112,0.064,0.232,0.12,0.344,0.184c3.544,2.136,6.576,5.176,8.696,8.944c0.032,0.056,0.08,0.096,0.12,0.152
	C262.832,231.936,264,235.816,264,240c0,4.208-1.184,8.104-3.088,11.544C260.888,251.584,260.84,251.608,260.824,251.648z
	 M48,312.808V167.192c8.808-1.792,16.44-6.6,22.12-13.16L134.344,190L54.36,314.776C52.304,313.976,50.208,313.256,48,312.808z
	 M67.936,323.456c-0.032-0.024-0.048-0.064-0.072-0.088l80.472-125.528l53.736,30.088C200.84,231.76,200,235.768,200,240
	s0.84,8.24,2.064,12.072L70.112,325.96C69.392,325.128,68.728,324.232,67.936,323.456z M269.648,213.4
	c-0.792-0.88-1.576-1.736-2.44-2.544c-1.176-1.104-2.424-2.12-3.72-3.072c-0.792-0.584-1.6-1.12-2.432-1.648
	c-1.52-0.96-3.096-1.832-4.736-2.576c-0.648-0.296-1.312-0.536-1.984-0.792c-1.936-0.76-3.92-1.408-5.968-1.856
	c-0.128-0.024-0.248-0.08-0.376-0.104V79.192c0.216-0.04,0.408-0.136,0.624-0.184c1.976-0.44,3.904-0.992,5.768-1.72l68.624,107.048
	l-52.856,29.6C270,213.752,269.816,213.584,269.648,213.4z M231.376,79.008c0.216,0.048,0.408,0.136,0.624,0.184v121.616
	c-0.128,0.024-0.248,0.08-0.376,0.104c-2.048,0.448-4.032,1.096-5.968,1.856c-0.664,0.256-1.328,0.504-1.984,0.792
	c-1.64,0.744-3.208,1.616-4.736,2.576c-0.832,0.52-1.64,1.064-2.432,1.648c-1.296,0.952-2.544,1.968-3.72,3.072
	c-0.864,0.808-1.648,1.664-2.44,2.544c-0.168,0.184-0.352,0.344-0.512,0.536l-52.856-29.6L225.6,77.288
	C227.472,78.016,229.4,78.568,231.376,79.008z M440,104c13.232,0,24,10.768,24,24s-10.768,24-24,24
	c-8.928,0-16.64-4.96-20.776-12.208c-0.024-0.04-0.024-0.096-0.048-0.136c-1.016-1.808-1.76-3.656-2.288-5.52
	c-0.032-0.12-0.08-0.232-0.112-0.36c-0.504-1.912-0.776-3.84-0.776-5.776c0-3.304,0.696-6.544,2.064-9.648v-0.016
	C421.792,109.912,430.208,104,440,104z M272.616,63.096l128.296,56.448c-0.016,0.056-0.016,0.12-0.032,0.176
	c-0.056,0.256-0.08,0.512-0.128,0.768C400.28,122.96,400,125.464,400,128c0,2.368,0.28,4.704,0.712,7.016
	c0.208,1.152,0.528,2.24,0.824,3.352c0.168,0.584,0.24,1.176,0.432,1.76l-64.96,36.376l-69.16-107.888
	c0.32-0.312,0.616-0.632,0.92-0.952C270.144,66.232,271.456,64.736,272.616,63.096z M240,16c13.232,0,24,10.768,24,24
	c0,3.432-0.752,6.68-2.048,9.632c0,0.008-0.008,0.008-0.008,0.016c-0.032,0.072-0.072,0.128-0.104,0.2
	c-0.488,1.08-1.056,2.12-1.688,3.112c-0.32,0.496-0.688,0.944-1.04,1.416c-0.488,0.648-1,1.288-1.552,1.88
	c-0.384,0.416-0.776,0.824-1.192,1.208c-0.688,0.64-1.416,1.232-2.176,1.792c-0.336,0.248-0.656,0.536-1.008,0.768
	c-0.064,0.04-0.144,0.072-0.208,0.112c-0.016,0.016-0.04,0.016-0.064,0.024c-1.696,1.088-3.512,1.896-5.384,2.512
	c-0.44,0.144-0.88,0.296-1.336,0.416c-0.832,0.224-1.68,0.408-2.528,0.536c-0.44,0.064-0.888,0.088-1.336,0.136
	c-1.544,0.152-3.096,0.152-4.64,0c-0.448-0.04-0.896-0.064-1.336-0.136c-0.848-0.128-1.696-0.32-2.528-0.536
	c-0.456-0.12-0.896-0.272-1.336-0.416c-1.872-0.616-3.688-1.424-5.384-2.512c-0.016-0.016-0.04-0.008-0.064-0.024
	c-0.064-0.04-0.144-0.072-0.208-0.112c-0.352-0.232-0.664-0.512-1.008-0.768c-0.76-0.56-1.488-1.152-2.176-1.792
	c-0.416-0.384-0.808-0.792-1.192-1.216c-0.552-0.592-1.056-1.224-1.552-1.872c-0.352-0.472-0.72-0.92-1.04-1.416
	c-0.648-1-1.216-2.048-1.712-3.144c-0.024-0.056-0.064-0.104-0.088-0.16c0-0.008-0.008-0.008-0.008-0.008
	C216.752,46.68,216,43.432,216,40C216,26.768,226.768,16,240,16z M79.088,119.544l128.296-56.448c1.16,1.64,2.472,3.144,3.848,4.576
	c0.304,0.32,0.608,0.64,0.92,0.952l-69.16,107.888l-64.96-36.376c0.192-0.576,0.272-1.176,0.432-1.76
	c0.304-1.112,0.624-2.208,0.824-3.352C79.72,132.704,80,130.368,80,128c0-2.536-0.28-5.04-0.76-7.512
	c-0.048-0.256-0.072-0.512-0.128-0.768C79.104,119.664,79.096,119.6,79.088,119.544z M16,128c0-13.232,10.768-24,24-24
	c9.792,0,18.208,5.912,21.936,14.344v0.016C63.304,121.456,64,124.696,64,128c0,1.936-0.272,3.864-0.784,5.768
	c-0.032,0.12-0.08,0.232-0.112,0.36c-0.528,1.872-1.272,3.72-2.28,5.528c-0.024,0.04-0.024,0.096-0.048,0.144
	C56.64,147.04,48.928,152,40,152C26.768,152,16,141.232,16,128z M40,376c-13.232,0-24-10.768-24-24s10.768-24,24-24
	c4.76,0,9.168,1.432,12.904,3.832l0.016,0.008c1.68,1.08,3.184,2.36,4.52,3.768c0.16,0.176,0.296,0.376,0.456,0.552
	c1.048,1.168,1.952,2.44,2.744,3.776c0.048,0.088,0.096,0.184,0.144,0.272c0.024,0.048,0.024,0.096,0.048,0.144
	c1.016,1.808,1.76,3.656,2.288,5.528c0.032,0.12,0.08,0.232,0.112,0.352C63.728,348.136,64,350.064,64,352
	c0,3.304-0.696,6.544-2.064,9.648v0.016C58.208,370.088,49.792,376,40,376z M207.384,416.904L79.088,360.456
	c0.016-0.056,0.016-0.12,0.032-0.176c0.056-0.256,0.08-0.512,0.128-0.768C79.72,357.04,80,354.536,80,352
	c0-2.368-0.28-4.704-0.712-7.016c-0.056-0.336-0.032-0.696-0.104-1.024c-0.168-0.808-0.512-1.544-0.72-2.328
	c-0.168-0.584-0.24-1.176-0.432-1.76l131.808-73.808c0.16,0.192,0.352,0.352,0.512,0.536c0.792,0.88,1.576,1.736,2.44,2.544
	c1.176,1.104,2.424,2.12,3.72,3.072c0.792,0.584,1.6,1.12,2.432,1.648c1.52,0.96,3.096,1.832,4.736,2.576
	c0.648,0.296,1.312,0.536,1.984,0.792c1.936,0.76,3.92,1.408,5.968,1.856c0.128,0.024,0.248,0.08,0.376,0.104v121.616
	c-0.216,0.04-0.408,0.136-0.624,0.184c-2.176,0.48-4.296,1.144-6.336,1.976c-0.496,0.2-0.968,0.432-1.456,0.656
	c-1.888,0.856-3.72,1.824-5.448,2.96c-0.192,0.128-0.408,0.232-0.6,0.36c-1.816,1.232-3.48,2.664-5.072,4.192
	c-0.416,0.4-0.824,0.792-1.224,1.2C209.856,413.768,208.544,415.264,207.384,416.904z M240,464c-13.232,0-24-10.768-24-24
	c0-3.432,0.752-6.68,2.056-9.632c0-0.008,0.008-0.008,0.008-0.016c0.024-0.064,0.064-0.12,0.096-0.184
	c0.488-1.088,1.056-2.136,1.696-3.128c0.32-0.496,0.688-0.944,1.04-1.416c0.488-0.648,1-1.288,1.552-1.88
	c0.384-0.416,0.776-0.824,1.192-1.208c0.688-0.64,1.416-1.232,2.176-1.792c0.336-0.248,0.656-0.536,1.008-0.768
	c1.096-0.72,2.256-1.344,3.464-1.88c0.408-0.184,0.84-0.32,1.256-0.48c0.928-0.352,1.88-0.656,2.856-0.888
	c0.44-0.104,0.872-0.216,1.32-0.296c1.392-0.256,2.816-0.432,4.28-0.432c1.464,0,2.888,0.176,4.28,0.432
	c0.448,0.08,0.88,0.192,1.32,0.296c0.976,0.232,1.928,0.536,2.856,0.888c0.416,0.16,0.848,0.296,1.256,0.48
	c1.208,0.536,2.368,1.16,3.464,1.88c0.352,0.232,0.664,0.512,1.008,0.768c0.76,0.56,1.488,1.152,2.176,1.792
	c0.408,0.384,0.808,0.792,1.192,1.208c0.552,0.6,1.064,1.232,1.56,1.888c0.352,0.464,0.72,0.92,1.04,1.408
	c0.632,0.984,1.192,2.016,1.68,3.088c0.032,0.072,0.08,0.144,0.112,0.216c0.008,0.008,0.016,0.016,0.016,0.032
	c1.296,2.952,2.04,6.2,2.04,9.624C264,453.232,253.232,464,240,464z M400.912,360.456l-128.296,56.448
	c-1.16-1.64-2.472-3.144-3.848-4.576c-0.4-0.416-0.808-0.808-1.224-1.2c-1.592-1.52-3.264-2.952-5.072-4.192
	c-0.192-0.128-0.4-0.232-0.592-0.36c-1.728-1.136-3.56-2.104-5.456-2.968c-0.488-0.224-0.96-0.448-1.456-0.656
	c-2.048-0.832-4.16-1.488-6.336-1.976c-0.216-0.048-0.408-0.136-0.624-0.184v-121.6c0.128-0.024,0.248-0.08,0.376-0.104
	c2.048-0.448,4.032-1.096,5.968-1.856c0.664-0.256,1.328-0.504,1.984-0.792c1.64-0.744,3.208-1.616,4.736-2.576
	c0.832-0.52,1.64-1.064,2.432-1.648c1.296-0.952,2.544-1.968,3.72-3.072c0.864-0.808,1.648-1.664,2.44-2.544
	c0.168-0.184,0.352-0.344,0.512-0.536l131.808,73.808c-0.192,0.576-0.272,1.176-0.432,1.76c-0.216,0.792-0.56,1.52-0.72,2.328
	c-0.072,0.336-0.048,0.688-0.104,1.024C400.28,347.296,400,349.632,400,352c0,2.536,0.28,5.04,0.76,7.512
	c0.048,0.256,0.072,0.512,0.128,0.768C400.896,360.336,400.904,360.4,400.912,360.456z M464,352c0,13.232-10.768,24-24,24
	c-9.792,0-18.208-5.912-21.936-14.344v-0.016c-1.368-3.096-2.064-6.336-2.064-9.64c0-1.936,0.272-3.864,0.784-5.768
	c0.032-0.12,0.08-0.24,0.112-0.36c0.528-1.872,1.272-3.712,2.288-5.52c0.024-0.04,0.024-0.096,0.048-0.144
	c0.048-0.088,0.096-0.184,0.144-0.272c0.792-1.336,1.696-2.616,2.744-3.784c0.16-0.176,0.288-0.376,0.448-0.544
	c1.336-1.408,2.84-2.688,4.52-3.768l0.016-0.008c3.728-2.4,8.136-3.832,12.896-3.832C453.232,328,464,338.768,464,352z"/>
<g>
</g>
<g>
</g>
<g>
</g>
<g>
</g>
<g>
</g>
<g>
</g>
<g>
</g>
<g>
</g>
<g>
</g>
<g>
</g>
<g>
</g>
<g>
</g>
<g>
</g>
<g>
</g>
<g>
</g>
</svg>
