<?xml version="1.0" encoding="iso-8859-1"?>
<!-- Generator: Adobe Illustrator 19.0.0, SVG Export Plug-In . SVG Version: 6.00 Build 0)  -->
<svg version="1.1" id="Capa_1" xmlns="http://www.w3.org/2000/svg" xmlns:xlink="http://www.w3.org/1999/xlink" x="0px" y="0px"
	 viewBox="0 0 423.253 423.253" style="enable-background:new 0 0 423.253 423.253;" xml:space="preserve">
<path style="fill:#FFFFFF;" d="M324.267,241.029v40.151H358.4v135.246H57.982c-11.288,0-20.436-9.131-20.436-20.453V27.279
	c0-11.295,9.216-20.453,20.504-20.453h245.709c11.325,0,20.504,9.127,20.504,20.507v177.35"/>
<g>
	<path style="fill:#602F75;" d="M358.4,423.253H57.979c-15.032,0-27.259-12.237-27.259-27.279V27.279
		C30.72,12.237,42.981,0,58.054,0h245.705c15.073,0,27.334,12.264,27.334,27.337v177.347c0,3.768-3.055,6.827-6.827,6.827
		c-3.772,0-6.827-3.058-6.827-6.827V27.337c0-7.543-6.141-13.684-13.681-13.684H58.054c-7.54,0-13.681,6.113-13.681,13.626v368.695
		c0,7.513,6.106,13.626,13.606,13.626h293.594V288.007h-27.307c-3.772,0-6.827-3.058-6.827-6.827v-40.154
		c0-3.768,3.055-6.827,6.827-6.827c3.772,0,6.827,3.058,6.827,6.827v33.328H358.4c3.772,0,6.827,3.058,6.827,6.827v135.246
		C365.227,420.195,362.172,423.253,358.4,423.253z"/>
	<rect x="78.507" y="47.787" style="fill:#602F75;" width="197.973" height="13.653"/>
</g>
<g>
	<rect x="78.507" y="191.147" style="fill:#00E7FF;" width="88.747" height="13.653"/>
	<rect x="78.507" y="218.453" style="fill:#00E7FF;" width="88.747" height="13.653"/>
</g>
<g>
	<rect x="194.56" y="191.147" style="fill:#602F75;" width="81.92" height="13.653"/>
	<rect x="194.56" y="218.453" style="fill:#602F75;" width="81.92" height="13.653"/>
	<rect x="78.507" y="245.76" style="fill:#602F75;" width="88.747" height="13.653"/>
	<rect x="194.56" y="245.76" style="fill:#602F75;" width="81.92" height="13.653"/>
	<rect x="78.507" y="273.067" style="fill:#602F75;" width="88.747" height="13.653"/>
	<rect x="194.56" y="273.067" style="fill:#602F75;" width="81.92" height="13.653"/>
	<rect x="78.507" y="300.373" style="fill:#602F75;" width="88.747" height="13.653"/>
	<rect x="194.56" y="300.373" style="fill:#602F75;" width="81.92" height="13.653"/>
</g>
<rect x="78.507" y="327.68" style="fill:#00E7FF;" width="88.747" height="13.653"/>
<rect x="194.56" y="327.68" style="fill:#602F75;" width="81.92" height="13.653"/>
<rect x="78.507" y="81.92" style="fill:#ff6600;" width="197.973" height="88.747"/>
<path style="fill:#602F75;" d="M276.48,177.493H78.507c-3.772,0-6.827-3.058-6.827-6.827V81.92c0-3.768,3.055-6.827,6.827-6.827
	H276.48c3.772,0,6.827,3.058,6.827,6.827v88.747C283.307,174.435,280.252,177.493,276.48,177.493z M85.333,163.84h184.32V88.747
	H85.333V163.84z"/>
<path style="fill:#99ff99;" d="M324.267,279.893h61.44V385.7c0,16.971-13.79,30.727-30.72,30.727
	c-16.968,0-30.72-13.715-30.72-30.727V279.893z"/>
<path style="fill:#602F75;" d="M354.987,423.253c-20.698,0-37.547-16.848-37.547-37.553V279.893c0-3.768,3.055-6.827,6.827-6.827
	h61.44c3.772,0,6.827,3.058,6.827,6.827V385.7C392.533,406.405,375.685,423.253,354.987,423.253z M331.093,286.72v98.98
	c0,13.179,10.721,23.9,23.893,23.9s23.893-10.721,23.893-23.9v-98.98H331.093z"/>
<g>
</g>
<g>
</g>
<g>
</g>
<g>
</g>
<g>
</g>
<g>
</g>
<g>
</g>
<g>
</g>
<g>
</g>
<g>
</g>
<g>
</g>
<g>
</g>
<g>
</g>
<g>
</g>
<g>
</g>
</svg>
