<?xml version="1.0" encoding="iso-8859-1"?>
<!-- Generator: Adobe Illustrator 16.0.0, SVG Export Plug-In . SVG Version: 6.00 Build 0)  -->
<!DOCTYPE svg PUBLIC "-//W3C//DTD SVG 1.1//EN" "http://www.w3.org/Graphics/SVG/1.1/DTD/svg11.dtd">
<svg version="1.1" id="Capa_1" xmlns="http://www.w3.org/2000/svg" xmlns:xlink="http://www.w3.org/1999/xlink" x="0px" y="0px"
	 width="359.682px" height="359.682px" viewBox="0 0 359.682 359.682" style="enable-background:new 0 0 359.682 359.682;"
	 xml:space="preserve">
<g>
	<g>
		<path style="fill:#ff7171" d="M292.792,208.986c-19.584,6.12-40.393,7.344-61.2,8.568c-10.404,0.611-20.808,0.611-31.212,0
			c-17.137-0.612-15.301-4.896-20.808-20.809c-16.524-51.408-35.496-103.428-66.096-148.104c-3.06-4.284-10.404-5.508-12.852,0
			c-36.108,85.68-70.992,171.972-100.368,260.1c-1.836,4.896,6.732,8.568,9.18,3.672C43.708,231.629,74.308,149.01,108.58,68.226
			c30.6,48.348,48.348,103.428,64.872,157.896c1.224,3.672,3.672,4.896,7.344,5.508c34.271,3.672,86.292,7.345,117.504-9.792
			C305.032,218.166,300.136,207.15,292.792,208.986z"/>
		<path style="fill:#99ffff" d="M298.912,249.99c-34.885,3.672-100.368,29.988-130.356,3.672c-17.136-14.688-20.808-48.348-26.928-69.156
			c-5.508-18.359-13.464-35.496-25.704-50.795c-3.06-4.284-9.792-1.224-11.016,3.06C84.1,197.358,55.948,253.662,21.676,307.518
			c-3.672,5.508,4.896,9.792,8.568,4.896c35.496-48.96,63.036-102.815,83.232-159.732c21.42,37.333,18.36,94.86,55.692,118.116
			c16.523,10.404,45.899,5.509,64.26,3.672c22.644-2.447,45.288-5.508,67.32-11.016C307.479,261.005,306.256,249.377,298.912,249.99
			z"/>
		<path style="fill:#9acd33" d="M355.828,225.509c-27.54-18.972-53.244-39.779-78.336-61.812c-4.284-3.672-10.404,1.836-6.732,6.732
			c20.808,23.256,45.288,44.064,69.768,63.036c-17.136,22.645-36.107,42.229-56.304,62.425c-7.344,7.344,4.284,18.972,11.628,11.628
			c22.645-22.032,44.676-44.677,62.424-70.992C361.336,232.242,358.888,227.958,355.828,225.509z"/>
	</g>
</g>
<g>
</g>
<g>
</g>
<g>
</g>
<g>
</g>
<g>
</g>
<g>
</g>
<g>
</g>
<g>
</g>
<g>
</g>
<g>
</g>
<g>
</g>
<g>
</g>
<g>
</g>
<g>
</g>
<g>
</g>
</svg>
