<?xml version="1.0" encoding="iso-8859-1"?>
<!-- Generator: Adobe Illustrator 16.0.0, SVG Export Plug-In . SVG Version: 6.00 Build 0)  -->
<!DOCTYPE svg PUBLIC "-//W3C//DTD SVG 1.1//EN" "http://www.w3.org/Graphics/SVG/1.1/DTD/svg11.dtd">
<svg version="1.1" id="Capa_1" xmlns="http://www.w3.org/2000/svg" xmlns:xlink="http://www.w3.org/1999/xlink" x="0px" y="0px"
	 width="59.267px" height="59.267px" viewBox="0 0 59.267 59.267" style="enable-background:new 0 0 59.267 59.267;"
	 xml:space="preserve">
<g>
	<g>
		<path style="fill:#68E8BB" d="M28.843,39.55c2.869,0.277,5.118,1.46,5.118,4.593c0,1.269-0.646,4.519,1.152,5.089c3.042,0.965,7.409-4.553,9.313-6.161
			c4.573-3.86,9.146-7.719,13.718-11.579c2.887-2.437-0.486-4.333-2.393-5.94c-5.024-4.24-10.048-8.48-15.072-12.721
			c-1.755-1.481-5.333-5.001-6.634-1.2c-0.051,0.07-0.086,0.146-0.086,0.233c-0.024,0.081-0.021,0.149,0.002,0.205
			c0.013,2.122,0.208,4.289-0.498,6.335c-0.73,2.118-3.089,0.945-4.487,1.32c-1.791,0.48-2.069,1.505-2.069,3.17
			c0,3.239,0,6.478,0,9.717c0,2.059-0.361,4.286,0.435,6.208C27.539,39.292,28.426,39.51,28.843,39.55z M28.606,37.158
			c0.164,0.233,0.357,0.44,0.578,0.563c0.262,0.147,0.525,0.296,0.787,0.442c0.1,0.057,0.209,0.107,0.321,0.158
			C29.366,38.144,28.862,37.852,28.606,37.158z M36.762,48.139c-0.293,0.247-0.52,0.207-0.698-0.008
			c0.083,0.022,0.164,0.058,0.248,0.063c0.262,0.02,0.102-0.23-0.353-0.472c-0.048-0.025-0.086-0.035-0.13-0.056
			c-0.272-0.787-0.357-2.14-0.386-3.186c0.155,0.194,0.337,0.377,0.544,0.507c0.6,0.377,1.197,0.755,1.794,1.138
			c0.327,0.212,0.708,0.302,1.027,0.283C38.127,46.987,37.445,47.563,36.762,48.139z M40.209,45.229
			c-0.264,0.223-0.528,0.445-0.792,0.668c-0.016-0.238-0.182-0.508-0.507-0.722c-0.97-0.637-1.944-1.263-2.928-1.881
			c-0.224-0.141-0.421-0.262-0.583-0.359c-0.088-0.763-0.245-1.544-0.532-2.237c0.258,0.284,0.539,0.544,0.807,0.696
			c1.545,0.879,3.091,1.758,4.636,2.637c0.332,0.188,0.768,0.216,1.167,0.128C41.055,44.516,40.632,44.872,40.209,45.229z
			 M53.747,33.857c-0.004-0.183-0.109-0.359-0.327-0.479c-0.245-0.135-0.489-0.27-0.732-0.405
			c-4.919-3.237-9.851-6.456-14.767-9.697c-0.517-0.341-0.473-0.421,0.091-0.167c0.758,0.341,1.509,0.698,2.251,1.071
			c4.591,2.7,9.13,5.479,13.51,8.508c0.37,0.256,0.815,0.366,1.146,0.312C54.521,33.293,54.122,33.58,53.747,33.857z M46.861,20.237
			c0.258,0.091,0.517,0.183,0.774,0.274c0.042,0.015,0.062,0.014,0.098,0.025c0.438,0.37,0.877,0.74,1.315,1.11
			c-0.215-0.115-0.43-0.229-0.645-0.346c-0.541-0.297-1.08-0.593-1.621-0.891C46.242,20.11,46.278,20.032,46.861,20.237z
			 M35.423,11.735c0.082-0.284,0.349-0.335,0.721-0.247c0.154,0.089,0.336,0.19,0.553,0.3c0.438,0.223,0.879,0.445,1.318,0.667
			c0.555,0.372,1.152,0.814,1.765,1.295c-1.113-0.592-2.233-1.172-3.36-1.739c-0.362-0.182-0.739-0.254-0.996-0.217
			C35.423,11.774,35.423,11.755,35.423,11.735z M35.415,13.21c0.173,0.132,0.385,0.269,0.626,0.389
			c1.775,0.89,3.538,1.807,5.285,2.752c0.545,0.296,0.512,0.366-0.066,0.145c-1.448-0.549-2.879-1.136-4.305-1.73
			c-0.571-0.239-1.231-0.552-1.476-0.702c-0.028-0.018-0.055-0.01-0.083-0.015C35.405,13.778,35.411,13.497,35.415,13.21z
			 M35.312,15.533c0.182,0.278,0.434,0.527,0.717,0.677c0.646,0.343,1.292,0.688,1.936,1.036
			c6.086,3.626,12.233,7.146,18.422,10.595c0.03,0.025,0.061,0.051,0.091,0.077c2.067,1.744,0.706,3.312-1.043,4.687
			c0.088-0.192,0.066-0.389-0.098-0.507c-0.147-0.106-0.293-0.212-0.44-0.317c-4.796-3.511-9.71-6.872-14.989-9.505
			c-1.51-0.885-3.023-1.764-4.539-2.64c-0.537-0.31-1.197-0.095-1.656,0.321c-0.402,0.366-0.874,0.579-1.382,0.579h-1.048
			C34.182,20.033,35.053,18.284,35.312,15.533z M28.697,21.365c0.098,0.23,0.318,0.463,0.599,0.607
			c4.838,2.459,9.655,4.958,14.401,7.573c1.486,0.829,2.967,1.657,4.407,2.509c1.261,0.744,2.527,1.473,3.8,2.192
			c0.164,0.1,0.331,0.196,0.495,0.294c0.104,0.062,0.247,0.074,0.397,0.062c-0.64,0.54-1.279,1.08-1.919,1.62
			c0.029-0.278-0.092-0.557-0.401-0.745c-7.091-4.347-14.211-8.648-21.311-12.956c-0.296-0.179-0.55-0.211-0.727-0.137
			C28.509,21.982,28.595,21.638,28.697,21.365z M48.785,36.177c-2.854-1.635-5.688-3.293-8.487-5.002
			c-3.189-1.948-6.315-4.003-9.483-5.977c-0.524-0.327-0.524-0.328,0.004-0.005c5.991,3.657,11.995,7.294,17.983,10.956
			C49.331,36.472,49.322,36.486,48.785,36.177z M28.298,23.462c0.04,0.135,0.088,0.241,0.143,0.275c0.129,0.079,0.13,0.081,0,0.005
			c-0.079-0.047-0.146,0.062-0.189,0.249C28.266,23.81,28.281,23.634,28.298,23.462z M28.219,24.496
			c0.035,0.451,0.441,1.034,0.948,1.34c4.697,2.832,9.247,5.939,13.954,8.733c1.655,0.981,3.316,1.952,4.986,2.913
			c0.315,0.181,0.725,0.216,1.107,0.144c-0.66,0.558-1.32,1.114-1.979,1.672c-0.018-0.236-0.178-0.484-0.496-0.667
			c-1.448-0.83-2.894-1.66-4.344-2.487c-4.523-2.827-8.957-5.803-13.282-8.923c-0.502-0.361-0.907-0.278-0.907,0.188
			c0,0.467,0.167,0.966,0.375,1.113c0.207,0.146,0.207,0.181,0,0.075c-0.207-0.105-0.375,0.193-0.375,0.667
			c0,0.473,0.448,1.082,1,1.362c4.472,2.29,8.863,4.743,13.235,7.24c0.996,0.622,1.997,1.236,3.003,1.843
			c0.317,0.191,0.697,0.259,1.034,0.228c-1.188,1.003-2.377,2.006-3.564,3.01c0.044-0.286-0.079-0.572-0.408-0.759
			c-4.449-2.527-8.95-4.974-13.337-7.578c-0.347-0.206-0.637-0.154-0.806,0.065C28.308,33.094,28.013,28.073,28.219,24.496z"/>
		<path style="fill:#ff7171" d="M17.487,37.1c0,3.507,7.35,3.425,8.172,0.386c0.006-0.021-0.007-0.035-0.009-0.054c0.002-0.013,0.013-0.023,0.013-0.036
			c0-5.086,0-10.171,0-15.257c0-3.507-7.349-3.425-8.172-0.386c-0.457,1.688-0.004,4.112-0.004,5.845
			C17.487,30.766,17.487,33.933,17.487,37.1z M19.215,38.053c0.084,0.05,0.167,0.099,0.258,0.15c0.568,0.325,1.58,0.588,2.26,0.588
			h0.642C21.195,38.96,19.796,38.721,19.215,38.053z M18.936,21.5c0-1.465,3.909-1.456,4.994-0.186
			c-0.175-0.083-0.365-0.141-0.571-0.141c0,0-0.041,0-0.091,0c-0.052,0,0.05,0.068,0.227,0.149c0.108,0.048,0.215,0.097,0.32,0.15
			c0.114,0.066,0.226,0.134,0.338,0.202c0.039,0.109,0.06,0.224,0.06,0.346c0,0.172,0,0.344,0,0.517
			c-0.154-0.212-0.324-0.405-0.517-0.532c-0.077-0.052-0.155-0.102-0.232-0.153c-0.568-0.375-1.58-0.68-2.261-0.68h-1.414
			c-0.289,0-0.556,0.09-0.776,0.244c-0.035,0.025-0.056,0.055-0.079,0.085C18.936,21.503,18.936,21.501,18.936,21.5z M18.936,21.982
			c0.115,0.239,0.36,0.488,0.672,0.652c1.349,0.708,2.692,1.425,4.032,2.148c0.211,0.114,0.407,0.148,0.573,0.12
			c0,0.62,0,1.24,0,1.86c-0.161-0.176-0.338-0.342-0.541-0.465c-1.399-0.854-2.798-1.71-4.197-2.564
			c-0.202-0.123-0.379-0.176-0.54-0.197C18.936,23.018,18.936,22.5,18.936,21.982z M18.936,24.909c0.16,0.175,0.338,0.34,0.54,0.463
			c1.4,0.857,2.798,1.715,4.197,2.572c0.202,0.124,0.38,0.176,0.541,0.197c0,0.11,0,0.221,0,0.331
			c-0.122-0.073-0.245-0.145-0.365-0.219c-1.473-0.905-2.931-1.831-4.386-2.761c-0.197-0.125-0.37-0.184-0.526-0.211
			C18.936,25.157,18.936,25.034,18.936,24.909z M18.936,26.618c0.157,0.173,0.33,0.337,0.526,0.464
			c1.402,0.899,2.805,1.798,4.215,2.681c0.2,0.125,0.376,0.179,0.536,0.202c0,0.724,0,1.448,0,2.173
			c-0.157-0.181-0.33-0.349-0.526-0.476c-1.424-0.92-2.838-1.855-4.243-2.804c-0.189-0.128-0.356-0.166-0.508-0.165
			C18.936,28.002,18.936,27.31,18.936,26.618z M18.936,33.041c0-0.812,0-1.624,0-2.435c0.167,0.21,0.355,0.398,0.569,0.516
			c1.387,0.767,2.77,1.542,4.15,2.327c0.209,0.119,0.393,0.163,0.559,0.172c0,1.361,0,2.723,0,4.083
			c-0.032,0.114-0.091,0.218-0.164,0.314c-0.123-0.187-0.324-0.376-0.582-0.522c-1.324-0.747-2.647-1.491-3.969-2.238
			c-0.207-0.117-0.398-0.155-0.562-0.132C18.936,34.431,18.936,33.736,18.936,33.041z"/>
		<path style="fill:#a6dcef" d="M8.957,37.1c0,3.464,7.153,3.378,7.962,0.381c0.005-0.02-0.008-0.03-0.009-0.046c0.002-0.013,0.014-0.025,0.014-0.038
			c0-5.086,0-10.171,0-15.257c0-3.465-7.152-3.378-7.962-0.381c-0.457,1.688-0.005,4.107-0.005,5.84
			C8.957,30.766,8.957,33.933,8.957,37.1z M10.821,38.216c0.006,0.004,0.012,0.007,0.018,0.011c0.568,0.325,1.58,0.588,2.26,0.588
			h0.44C12.537,38.93,11.412,38.738,10.821,38.216z M15.167,21.28c-0.139-0.049-0.286-0.083-0.442-0.083c0,0-0.041,0-0.091,0
			c-0.052,0,0.05,0.068,0.227,0.149c0.108,0.048,0.215,0.097,0.32,0.15c0.069,0.041,0.137,0.082,0.206,0.123
			c0.053,0.126,0.089,0.258,0.089,0.402c0,0.129,0,0.258,0,0.387c-0.126-0.15-0.265-0.282-0.412-0.379
			c-0.077-0.052-0.155-0.102-0.232-0.153c-0.568-0.375-1.58-0.68-2.261-0.68h-1.414c-0.273,0-0.523,0.086-0.735,0.224
			C10.559,20.031,14.101,20.074,15.167,21.28z M10.407,22.176c0.133,0.182,0.331,0.356,0.568,0.48
			c1.349,0.709,2.692,1.425,4.032,2.148c0.169,0.091,0.327,0.129,0.469,0.128c0,0.578,0,1.156,0,1.733
			c-0.134-0.13-0.28-0.25-0.436-0.347c-1.399-0.854-2.798-1.71-4.197-2.563c-0.157-0.096-0.302-0.154-0.436-0.188
			C10.407,23.104,10.407,22.64,10.407,22.176z M10.407,25.051c0.133,0.129,0.279,0.249,0.436,0.345
			c1.4,0.857,2.798,1.715,4.197,2.572c0.157,0.096,0.303,0.155,0.436,0.188c0,0.092,0,0.185,0,0.277
			c-0.087-0.052-0.175-0.104-0.261-0.157c-1.473-0.905-2.931-1.831-4.386-2.761c-0.151-0.097-0.293-0.16-0.422-0.198
			C10.407,25.228,10.407,25.139,10.407,25.051z M10.407,26.762c0.129,0.128,0.271,0.246,0.422,0.343
			c1.402,0.899,2.805,1.798,4.215,2.681c0.155,0.097,0.299,0.157,0.432,0.192c0,0.686,0,1.372,0,2.058
			c-0.129-0.132-0.271-0.252-0.422-0.35c-1.424-0.919-2.838-1.856-4.243-2.804c-0.144-0.098-0.28-0.153-0.404-0.176
			C10.407,28.058,10.407,27.41,10.407,26.762z M10.407,33.041c0-0.759,0-1.519,0-2.277c0.142,0.152,0.297,0.289,0.465,0.382
			c1.387,0.766,2.77,1.542,4.15,2.327c0.164,0.093,0.315,0.144,0.454,0.17c0,1.356,0,2.714,0,4.071
			c-0.025,0.088-0.064,0.171-0.114,0.248c-0.125-0.159-0.308-0.316-0.528-0.441c-1.324-0.747-2.647-1.492-3.969-2.239
			c-0.165-0.093-0.319-0.134-0.458-0.137C10.407,34.443,10.407,33.742,10.407,33.041z"/>
		<path style="fill:#ffeb99" d="M0.201,37.1c0,3.514,7.367,3.434,8.191,0.387c0.006-0.022-0.007-0.037-0.009-0.056c0.002-0.013,0.012-0.022,0.012-0.035
			c0-5.086,0-10.171,0-15.257c0-3.514-7.366-3.434-8.191-0.387C-0.253,23.44,0.2,25.865,0.2,27.598
			C0.201,30.766,0.201,33.933,0.201,37.1z M2.017,38.139c0.064,0.037,0.122,0.072,0.189,0.11c0.561,0.321,1.554,0.581,2.235,0.586
			C3.489,38.852,2.524,38.623,2.017,38.139z M1.651,21.5c0-1.485,4.083-1.453,5.077-0.11c-0.19-0.103-0.404-0.17-0.636-0.17
			c0,0-0.041,0-0.091,0c-0.052,0,0.05,0.068,0.227,0.149c0.108,0.048,0.215,0.097,0.32,0.15c0.117,0.068,0.232,0.138,0.348,0.207
			c0.029,0.094,0.051,0.19,0.051,0.295c0,0.188,0,0.375,0,0.562c-0.154-0.212-0.324-0.405-0.517-0.532
			c-0.077-0.052-0.155-0.102-0.232-0.153c-0.568-0.375-1.58-0.68-2.261-0.68H2.524c-0.289,0-0.556,0.09-0.776,0.244
			c-0.043,0.03-0.073,0.066-0.097,0.104C1.651,21.546,1.651,21.523,1.651,21.5z M1.651,21.979c0.103,0.253,0.357,0.525,0.69,0.7
			c1.349,0.708,2.692,1.425,4.032,2.148c0.211,0.114,0.407,0.148,0.573,0.12c0,0.62,0,1.24,0,1.86
			c-0.161-0.176-0.338-0.342-0.541-0.465c-1.399-0.854-2.798-1.71-4.197-2.564c-0.21-0.128-0.394-0.181-0.558-0.198
			C1.651,23.047,1.651,22.513,1.651,21.979z M1.651,24.934c0.164,0.183,0.348,0.356,0.558,0.484c1.4,0.857,2.798,1.715,4.197,2.572
			c0.202,0.124,0.38,0.176,0.541,0.197c0,0.11,0,0.221,0,0.331c-0.122-0.073-0.245-0.145-0.365-0.219
			c-1.473-0.905-2.931-1.831-4.386-2.761c-0.205-0.131-0.384-0.188-0.545-0.213C1.651,25.194,1.651,25.064,1.651,24.934z
			 M1.651,26.643c0.161,0.182,0.34,0.354,0.545,0.485c1.402,0.899,2.805,1.798,4.215,2.681c0.2,0.125,0.376,0.179,0.536,0.202
			c0,0.724,0,1.448,0,2.173c-0.157-0.18-0.33-0.349-0.526-0.476c-1.424-0.92-2.838-1.855-4.243-2.803
			c-0.198-0.133-0.371-0.17-0.527-0.163C1.651,28.042,1.651,27.343,1.651,26.643z M1.651,33.041c0-0.804,0-1.608,0-2.413
			c0.171,0.221,0.366,0.417,0.588,0.54c1.387,0.767,2.77,1.542,4.15,2.327c0.209,0.119,0.393,0.163,0.559,0.172
			c0,1.346,0,2.69,0,4.035c-0.034,0.122-0.101,0.232-0.183,0.335c-0.124-0.177-0.319-0.355-0.563-0.494
			c-1.324-0.746-2.647-1.491-3.969-2.238c-0.215-0.122-0.414-0.16-0.581-0.13C1.651,34.461,1.651,33.75,1.651,33.041z"/>
	</g>
</g>
<g>
</g>
<g>
</g>
<g>
</g>
<g>
</g>
<g>
</g>
<g>
</g>
<g>
</g>
<g>
</g>
<g>
</g>
<g>
</g>
<g>
</g>
<g>
</g>
<g>
</g>
<g>
</g>
<g>
</g>
</svg>
