<?xml version="1.0" encoding="iso-8859-1"?>
<!-- Generator: Adobe Illustrator 19.0.0, SVG Export Plug-In . SVG Version: 6.00 Build 0)  -->
<svg version="1.1" id="Layer_1" xmlns="http://www.w3.org/2000/svg" xmlns:xlink="http://www.w3.org/1999/xlink" x="0px" y="0px"
	 viewBox="0 0 512 512" style="enable-background:new 0 0 512 512;" xml:space="preserve">
<path style="fill:#99ffff;" d="M266.756,430.612c-4.456,0-8.067-3.611-8.067-8.067h-16.134v81.388h26.891v-73.32H266.756z"/>
<path style="fill:#99ffff;" d="M242.555,236.329v112.165c0,2.374-1.046,4.627-2.858,6.16c-1.812,1.533-4.205,2.192-6.55,1.795
	c-31.573-5.319-60.493-21.749-81.438-46.263c-21.185-24.795-32.852-56.391-32.852-88.965v-80.926c0-4.456,3.611-8.067,8.067-8.067
	h12.917l-34.43-59.624l-34.43,59.624h12.917c4.456,0,8.067,3.611,8.067,8.067v80.926c0,78.654,56.05,146.419,133.274,161.129
	c3.805,0.725,6.558,4.052,6.558,7.924v24.204h2.689c4.456,0,8.067,3.611,8.067,8.067h16.134c0-4.456,3.611-8.067,8.067-8.067h13.445
	v-24.202c0-3.873,2.754-7.199,6.558-7.924c77.224-14.712,133.274-82.478,133.274-161.132v-80.926c0-4.456,3.611-8.067,8.067-8.067
	h12.917l-34.43-59.624l-34.43,59.624h12.917c4.456,0,8.067,3.611,8.067,8.067v80.926c0,32.574-11.667,64.17-32.852,88.965
	c-20.945,24.514-49.865,40.943-81.438,46.263c-2.344,0.397-4.737-0.262-6.55-1.795c-1.814-1.533-2.858-3.786-2.858-6.16V91.891
	c0-4.456,3.611-8.067,8.067-8.067h12.917L256,24.2l-34.43,59.624h12.917c4.456,0,8.067,3.611,8.067,8.067V204.06
	c0,4.456-3.611,8.067-8.067,8.067v16.134C238.944,228.262,242.555,231.873,242.555,236.329z"/>
<path style="fill:#1a1c20" d="M234.487,414.478h-2.689v-24.204c0-3.873-2.754-7.199-6.558-7.924c-77.224-14.71-133.274-82.475-133.274-161.129v-80.926
	c0-4.456-3.611-8.067-8.067-8.067H70.982l34.43-59.624l34.43,59.624h-12.917c-4.456,0-8.067,3.611-8.067,8.067v80.926
	c0,32.574,11.667,64.17,32.852,88.965c20.945,24.514,49.865,40.943,81.438,46.263c2.345,0.397,4.736-0.262,6.55-1.795
	c1.814-1.533,2.858-3.786,2.858-6.16V236.329c0-4.456-3.611-8.067-8.067-8.067s-8.067,3.611-8.067,8.067v102.246
	c-53.519-13.379-91.429-61.293-91.429-117.355v-72.859h18.824c2.883,0,5.545-1.538,6.986-4.034c1.441-2.497,1.441-5.572,0-8.067
	l-48.403-83.824c-1.441-2.495-4.104-4.034-6.986-4.034s-5.545,1.538-6.986,4.034l-48.403,83.824c-1.441,2.495-1.441,5.571,0,8.067
	c1.441,2.495,4.104,4.034,6.986,4.034h18.824v72.859c0,84.148,58.409,156.95,139.832,175.605v25.719
	c0,4.456,3.611,8.067,8.067,8.067h2.689v73.32c0,4.456,3.611,8.067,8.067,8.067s8.067-3.611,8.067-8.067v-81.388
	C242.555,418.089,238.944,414.478,234.487,414.478z"/>
<path style="fill:#1a1c20" d="M461.978,136.261l-48.403-83.824c-1.441-2.495-4.104-4.034-6.986-4.034s-5.545,1.538-6.986,4.034l-48.403,83.824
	c-1.441,2.495-1.441,5.571,0,8.067c1.441,2.495,4.104,4.034,6.986,4.034h18.824v72.859c0,56.061-37.909,103.976-91.429,117.354
	V99.958h18.824c2.883,0,5.545-1.538,6.986-4.034c1.441-2.497,1.441-5.572,0-8.067L262.986,4.034C261.545,1.538,258.883,0,256,0
	c-2.883,0-5.545,1.538-6.986,4.034L200.61,87.857c-1.441,2.495-1.441,5.571,0,8.067c1.441,2.495,4.104,4.034,6.986,4.034h18.824
	V204.06c0,4.456,3.611,8.067,8.067,8.067s8.067-3.611,8.067-8.067V91.891c0-4.456-3.611-8.067-8.067-8.067H221.57L256,24.2
	l34.43,59.624h-12.917c-4.456,0-8.067,3.611-8.067,8.067v256.602c0,2.374,1.046,4.627,2.858,6.16
	c1.812,1.533,4.206,2.192,6.55,1.795c31.573-5.319,60.493-21.749,81.438-46.263c21.185-24.795,32.852-56.391,32.852-88.965v-80.926
	c0-4.456-3.611-8.067-8.067-8.067h-12.917l34.43-59.624l34.43,59.624h-12.917c-4.456,0-8.067,3.611-8.067,8.067v80.926
	c0,78.653-56.05,146.419-133.274,161.132c-3.804,0.725-6.558,4.052-6.558,7.924v24.202h-13.445c-4.456,0-8.067,3.611-8.067,8.067
	c0,4.456,3.611,8.067,8.067,8.067h2.689v73.32c0,4.456,3.611,8.067,8.067,8.067c4.456,0,8.067-3.611,8.067-8.067v-73.32h2.689
	c4.456,0,8.067-3.611,8.067-8.067v-25.722c81.423-18.652,139.832-91.453,139.832-175.603v-72.859h18.824
	c2.883,0,5.545-1.538,6.986-4.034C463.419,141.83,463.419,138.756,461.978,136.261z"/>
<g>
</g>
<g>
</g>
<g>
</g>
<g>
</g>
<g>
</g>
<g>
</g>
<g>
</g>
<g>
</g>
<g>
</g>
<g>
</g>
<g>
</g>
<g>
</g>
<g>
</g>
<g>
</g>
<g>
</g>
</svg>
